# xmcd
#
# Track frame offsets:
#	150
#	19590
#	41522
#	58747
#	85327
#	99412
#	120482
#	136000
#	156277
#	169167
#	187455
#	211982
#	229772
#	260320
#
# Disc length: 3751 seconds
#
# Revision: 1
# Processed by: cddbd v1.4PL0 Copyright (c) Steve Scherf et al.
# Submitted via: audiograbber 1.80.04
#
DISCID=ba0ea50e
DTITLE=Allison Moorer - Miss Fortune
DYEAR=2002
DGENRE=
TTITLE0=Tumbling Down
TTITLE1=Cold In California
TTITLE2=Let Go
TTITLE3=Ruby Jewel Was Here
TTITLE4=Can't Get There From Here
TTITLE5=Steal The Sun
TTITLE6=Up This High
TTITLE7=Hey Jezebel
TTITLE8=Mark My Word
TTITLE9=No Place For A Heart
TTITLE10=Yessirree
TTITLE11=Going Down
TTITLE12=Dying Breed
TTITLE13=Bully Jones (Bonus UK Track)
EXTD=
EXTT0=
EXTT1=
EXTT2=
EXTT3=
EXTT4=
EXTT5=
EXTT6=
EXTT7=
EXTT8=
EXTT9=
EXTT10=
EXTT11=
EXTT12=
EXTT13=
PLAYORDER=
